# xmcd
#
# Track frame offsets:
#	150
#	13343
#	27371
#	39926
#	51151
#	61371
#	74051
#	91578
#	101843
#	114999
#	139861
#	157731
#
# Disc length: 2308
#
# Revision: 1
# Processed by: cddbd v1.5.1PL0 Copyright (c) Steve Scherf et al.
# Submitted via: ExactAudioCopy v0.90b4
# Normalized: r0:DSETVAR1
#
DISCID=9c09020c
DTITLE=Various Artist - Muddy Waters and Howlin' Wolf - Back To Back
DYEAR=2000
DGENRE=Blues
TTITLE0=Muddy Waters - Can't Lose What You Ain't Got
TTITLE1=Muddy Waters - You're Gonna Need My Help
TTITLE2=Muddy Waters - Mean Mistreater
TTITLE3=Muddy Waters - Sugar Sweet
TTITLE4=Muddy Waters - Mean Red Spider
TTITLE5=Muddy Waters - The Stuff You Gotta Watch
TTITLE6=Howlin' Wolf - Goin' Down Slow
TTITLE7=Howlin' Wolf - Built For Comfort
TTITLE8=Howlin' Wolf - Highway 49
TTITLE9=Howlin' Wolf - Little Red Rooster
TTITLE10=Howlin' Wolf - Wang Dang Doodle
TTITLE11=Howlin' Wolf - Killing Floor
EXTD=Executive Producers: Don Grierson and John Lappen\nProject Manager: Roseann Losito\nEdel American Records, Inc
EXTT0=
EXTT1=
EXTT2=
EXTT3=
EXTT4=
EXTT5=
EXTT6=
EXTT7=
EXTT8=
EXTT9=
EXTT10=
EXTT11=
PLAYORDER=
